<?xml version="1.0" encoding="UTF-8" standalone="no"?><!-- Generator: Gravit.io --><svg xmlns="http://www.w3.org/2000/svg" xmlns:xlink="http://www.w3.org/1999/xlink" style="isolation:isolate" viewBox="0 0 48 48" width="48pt" height="48pt"><circle vector-effect="non-scaling-stroke" cx="24" cy="24" r="24" fill="rgb(241,246,254)"/><path d=" M 24 11.5 C 26.761 11.5 29 13.739 29 16.5 C 29 19.261 26.761 21.5 24 21.5 C 21.239 21.5 19 19.261 19 16.5 C 19 13.739 21.239 11.5 24 11.5 L 24 11.5 Z  M 24 24 C 28.142 24 31.5 20.642 31.5 16.5 C 31.5 12.358 28.142 9 24 9 C 19.858 9 16.5 12.358 16.5 16.5 C 16.504 20.64 19.86 23.996 24 24 L 24 24 L 24 24 Z  M 24 26.5 C 17.79 26.507 12.757 31.54 12.75 37.75 C 12.75 38.441 13.31 39 14 39 C 14.69 39 15.25 38.441 15.25 37.75 C 15.25 32.917 19.167 29 24 29 C 28.833 29 32.75 32.917 32.75 37.75 C 32.75 38.441 33.31 39 34 39 C 34.691 39 35.25 38.441 35.25 37.75 C 35.243 31.54 30.21 26.507 24 26.5 L 24 26.5 Z " fill-rule="evenodd" fill="rgb(3,26,63)"/></svg>