<svg width="512" height="512" viewBox="0 0 512 512" fill="none" xmlns="http://www.w3.org/2000/svg">
<g clip-path="url(#clip0_1_2)">
<path d="M72.7056 438.756C196.071 462.063 446.274 509.334 455.438 510.863C472.129 513.963 485.565 510.725 494.691 501.135L499.387 496.473C506.686 488.696 514.446 475.678 511.268 454.912C509.82 445.186 429.756 0 429.756 0L384.878 44.548C372.875 56.462 368.474 63.489 373.258 85.851C377.727 104.272 436.343 404.366 443.996 444.079C404.25 436.223 82.339 375.163 82.339 375.163L81.7857 375.069C66.9424 372.555 54.8911 370.514 41.747 383.562L0 425.002L5.829 426.126C9.99332 426.907 35.6175 431.748 72.7056 438.756Z" fill="#F2613F"/>
<path d="M359.895 338.322C357.878 325.441 353.525 315.941 346.564 309.03C340.405 302.917 332.16 298.876 321.298 296.9C300.794 292.661 211.183 275.518 175.08 268.611C165.92 266.859 160.205 265.765 159.937 265.709L158.344 265.164L131.47 291.841C125.468 297.798 123.188 305.377 125.66 312.492C128.399 319.873 135.608 325.475 145.144 327.171C164.76 331.621 360.031 369.019 361.885 369.305L366.389 370.15L365.538 365.679C365.538 365.679 362.73 353.05 359.895 338.322Z" fill="#F2613F"/>
<path d="M318.456 97.724C316.438 84.843 312.086 75.342 305.124 68.432C298.966 62.319 290.72 58.278 279.858 56.302C259.43 52.0781 170.398 35.0449 134.04 28.0888C124.647 26.2919 118.77 25.1675 118.498 25.11L116.905 24.565L90.03 51.242C84.029 57.199 81.749 64.778 84.22 71.894C86.959 79.274 94.168 84.876 103.705 86.573C123.321 91.022 318.592 128.42 320.445 128.707L324.949 129.551L324.098 125.081C324.098 125.081 321.291 112.452 318.456 97.724Z" fill="#9B3922"/>
<path d="M339.176 218.023C337.158 205.142 332.806 195.642 325.844 188.731C319.686 182.618 311.44 178.577 300.578 176.601C280.059 172.359 190.325 155.192 154.277 148.296C145.166 146.553 139.484 145.466 139.217 145.41L137.625 144.864L110.75 171.542C104.749 177.499 102.469 185.078 104.94 192.193C107.679 199.574 114.888 205.176 124.425 206.872C144.04 211.321 339.311 248.72 341.165 249.006L345.669 249.851L344.818 245.38C344.818 245.38 342.011 232.751 339.176 218.023Z" fill="#9B3922"/>
</g>
<defs>
<clipPath id="clip0_1_2">
<rect width="512" height="512" fill="white"/>
</clipPath>
</defs>
</svg>
