<?xml version="1.0" encoding="UTF-8" standalone="no"?><!-- Generator: Gravit.io --><svg xmlns="http://www.w3.org/2000/svg" xmlns:xlink="http://www.w3.org/1999/xlink" style="isolation:isolate" viewBox="0 0 512 512" width="512pt" height="512pt"><defs><clipPath id="_clipPath_euTYe7vWcJVJBeUfTaUEpD4Dv1ODL1Jq"><rect width="512" height="512"/></clipPath></defs><g clip-path="url(#_clipPath_euTYe7vWcJVJBeUfTaUEpD4Dv1ODL1Jq)"><linearGradient id="_lgradient_0" x1="0.1464466094067262" y1="0.14644660940672627" x2="0.8535533905932737" y2="0.8535533905932737" gradientTransform="matrix(426.667,0,0,512,42.667,0)" gradientUnits="userSpaceOnUse"><stop offset="0%" stop-opacity="1" style="stop-color:rgb(59,130,246)"/><stop offset="100%" stop-opacity="1" style="stop-color:rgb(99,102,241)"/></linearGradient><path d=" M 405.333 192 L 469.333 192 L 469.333 234.667 L 405.333 234.667 C 393.557 234.667 384 225.109 384 213.333 C 384 201.557 393.557 192 405.333 192 Z  M 106.667 341.333 L 128 341.333 L 128 2.133 C 78.336 12.267 42.667 55.979 42.667 106.667 L 42.667 363.2 C 57.579 351.957 75.2 344.853 93.76 342.635 C 98.005 341.76 102.336 341.333 106.667 341.333 Z  M 42.667 448 C 42.667 483.349 71.317 512 106.667 512 L 362.667 512 C 421.568 512 469.333 464.235 469.333 405.333 L 469.333 384 L 106.667 384 C 71.317 384 42.667 412.651 42.667 448 Z  M 405.333 277.333 C 370.048 277.333 341.333 248.619 341.333 213.333 C 341.333 178.048 370.048 149.333 405.333 149.333 L 469.333 149.333 L 469.333 106.667 C 469.333 47.765 421.568 0 362.667 0 L 170.667 0 L 170.667 341.333 L 469.333 341.333 L 469.333 277.333 L 405.333 277.333 Z " fill="url(#_lgradient_0)"/></g></svg>