<svg width="585" height="128" viewBox="0 0 585 128" fill="none" xmlns="http://www.w3.org/2000/svg">
<g clip-path="url(#clip0_1_10)">
<path d="M194.463 120H179.658C177.219 120 176 118.781 176 116.342V11.658C176 9.21933 177.219 8 179.658 8H194.463C196.902 8 198.121 9.21933 198.121 11.658V61.3H198.47C199.399 58.5133 201.198 54.9137 203.869 50.501L230.345 11.658C231.855 9.21933 234.119 8 237.138 8H254.208C255.485 8 256.269 8.37733 256.56 9.132C256.85 9.88667 256.531 10.8447 255.602 12.006L222.507 57.816L259.434 115.645C260.247 117.039 260.392 118.113 259.869 118.868C259.347 119.623 258.273 120 256.647 120H243.932C239.867 120 237.138 118.781 235.745 116.342L209.095 73.667L198.121 86.557V116.342C198.121 118.781 196.902 120 194.463 120ZM302.631 120H298.451C289.277 120 282.194 117.561 277.201 112.684C272.208 107.807 269.711 100.782 269.711 91.608V59.558C269.711 50.3847 272.208 43.3593 277.201 38.482C282.194 33.6047 289.277 31.166 298.451 31.166H338.687C341.242 31.166 342.519 32.3853 342.519 34.824V116.342C342.519 118.781 341.242 120 338.687 120H324.056C321.617 120 320.398 118.781 320.398 116.342V110.594H319.701C318.424 113.729 316.159 116.081 312.908 117.649C309.657 119.216 306.231 120 302.631 120ZM320.398 87.602V52.243C320.398 50.9657 319.701 50.327 318.308 50.327H301.935C298.219 50.327 295.606 51.1107 294.096 52.678C292.587 54.246 291.832 56.8877 291.832 60.603V90.563C291.832 94.279 292.587 96.9207 294.096 98.488C295.606 100.056 298.219 100.84 301.935 100.84H308.379C316.392 100.84 320.398 96.4273 320.398 87.602ZM395.297 120H362.202C359.88 120 358.719 118.781 358.719 116.342V105.194C358.719 103.917 358.951 103.017 359.415 102.495C359.88 101.972 360.809 101.711 362.202 101.711H391.291C396.981 101.711 399.826 99.969 399.826 96.485V95.614C399.826 92.8273 397.445 90.1567 392.684 87.602L375.44 78.022C369.518 75.0027 365.163 71.751 362.376 68.267C359.589 64.7837 358.196 60.313 358.196 54.855C358.196 46.727 360.344 40.7467 364.641 36.914C368.938 33.082 375.673 31.166 384.846 31.166H413.935C416.257 31.166 417.418 32.3853 417.418 34.824V46.146C417.418 47.4233 417.186 48.3233 416.722 48.846C416.257 49.3687 415.328 49.63 413.935 49.63H389.723C384.033 49.63 381.188 51.0813 381.188 53.984V54.855C381.188 57.4097 383.685 60.0227 388.678 62.694L406.271 73.145C412.309 76.3963 416.547 79.7347 418.986 83.16C421.425 86.586 422.644 91.0857 422.644 96.659C422.644 112.22 413.528 120 395.297 120ZM503.465 120H464.97C455.797 120 448.713 117.561 443.72 112.684C438.727 107.807 436.23 100.782 436.23 91.608V59.558C436.23 50.3847 438.727 43.3593 443.72 38.482C448.713 33.6047 455.797 31.166 464.97 31.166H478.731C487.904 31.166 494.988 33.6047 499.981 38.482C504.974 43.3593 507.471 50.3847 507.471 59.558V81.68C507.471 84.118 506.252 85.337 503.813 85.337H460.093C458.7 85.337 458.003 85.9757 458.003 87.253V91.086C458.003 94.6853 458.787 97.269 460.355 98.837C461.922 100.404 464.564 101.188 468.28 101.188H503.465C505.904 101.188 507.123 102.465 507.123 105.02V116.516C507.123 117.793 506.862 118.693 506.339 119.216C505.816 119.739 504.858 120 503.465 120ZM460.093 70.532H483.782C485.059 70.532 485.698 69.8933 485.698 68.616V60.255C485.698 56.539 484.943 53.9263 483.434 52.417C481.924 50.907 479.311 50.152 475.596 50.152H468.28C464.564 50.152 461.951 50.907 460.442 52.417C458.932 53.9263 458.177 56.539 458.177 60.255V68.616C458.177 69.8933 458.816 70.532 460.093 70.532ZM557.636 120H524.541C522.219 120 521.058 118.781 521.058 116.342V105.194C521.058 103.917 521.29 103.017 521.754 102.495C522.219 101.972 523.148 101.711 524.541 101.711H553.63C559.32 101.711 562.165 99.969 562.165 96.485V95.614C562.165 92.8273 559.784 90.1567 555.023 87.602L537.779 78.022C531.857 75.0027 527.502 71.751 524.715 68.267C521.928 64.7837 520.535 60.313 520.535 54.855C520.535 46.727 522.683 40.7467 526.98 36.914C531.277 33.082 538.012 31.166 547.185 31.166H576.274C578.596 31.166 579.757 32.3853 579.757 34.824V46.146C579.757 47.4233 579.525 48.3233 579.061 48.846C578.596 49.3687 577.667 49.63 576.274 49.63H552.062C546.372 49.63 543.527 51.0813 543.527 53.984V54.855C543.527 57.4097 546.024 60.0227 551.017 62.694L568.61 73.145C574.648 76.3963 578.886 79.7347 581.325 83.16C583.764 86.586 584.983 91.0857 584.983 96.659C584.983 112.22 575.867 120 557.636 120Z" fill="black"/>
<path d="M18.1764 109.689C49.0177 115.516 111.568 127.333 113.859 127.716C118.032 128.491 121.391 127.681 123.673 125.284L124.847 124.118C126.671 122.174 128.611 118.919 127.817 113.728C127.455 111.296 107.439 0 107.439 0L96.2195 11.137C93.2187 14.1155 92.1185 15.8722 93.3145 21.4627C94.4317 26.068 109.086 101.091 110.999 111.02C101.062 109.056 20.5847 93.7907 20.5847 93.7907L20.4464 93.7673C16.7356 93.1387 13.7228 92.6284 10.4367 95.8905L0 106.25L1.45725 106.531C2.49833 106.727 8.90438 107.937 18.1764 109.689Z" fill="#F2613F"/>
<path d="M89.9737 84.5805C89.4695 81.3602 88.3812 78.9852 86.641 77.2575C85.1012 75.7292 83.04 74.719 80.3245 74.225C75.1985 73.1653 52.7957 68.8795 43.77 67.1528C41.4801 66.7147 40.0513 66.4413 39.9842 66.4272L39.586 66.291L32.8675 72.9602C31.367 74.4495 30.797 76.3442 31.415 78.123C32.0997 79.9682 33.902 81.3687 36.286 81.7927C41.19 82.9052 90.0077 92.2547 90.4712 92.3262L91.5972 92.5375L91.3845 91.4197C91.3845 91.4197 90.6825 88.2625 89.9737 84.5805Z" fill="#F2613F"/>
<path d="M79.6139 24.431C79.1094 21.2107 78.0214 18.8355 76.2809 17.108C74.7414 15.5797 72.6799 14.5695 69.9644 14.0755C64.8574 13.0195 42.5996 8.7612 33.5099 7.02219C31.1618 6.57297 29.6925 6.29186 29.6245 6.27749L29.2262 6.14124L22.5075 12.8105C21.0072 14.2997 20.4372 16.1945 21.055 17.9735C21.7397 19.8185 23.542 21.219 25.9262 21.6432C30.8302 22.7555 79.6479 32.105 80.1112 32.1767L81.2372 32.3877L81.0244 31.2702C81.0244 31.2702 80.3227 28.113 79.6139 24.431Z" fill="#9B3922"/>
<path d="M84.7939 54.5057C84.2894 51.2855 83.2014 48.9105 81.4609 47.1827C79.9214 45.6545 77.8599 44.6442 75.1444 44.1502C70.0147 43.0898 47.5812 38.7981 38.5692 37.074C36.2915 36.6383 34.8711 36.3666 34.8042 36.3525L34.4062 36.216L27.6875 42.8855C26.1872 44.3747 25.6172 46.2695 26.235 48.0482C26.9197 49.8935 28.722 51.294 31.1062 51.718C36.01 52.8302 84.8277 62.18 85.2912 62.2515L86.4172 62.4627L86.2044 61.345C86.2044 61.345 85.5027 58.1877 84.7939 54.5057Z" fill="#9B3922"/>
</g>
<defs>
<clipPath id="clip0_1_10">
<rect width="585" height="128" fill="white"/>
</clipPath>
</defs>
</svg>
