<?xml version="1.0" encoding="UTF-8" standalone="no"?><!-- Generator: Gravit.io --><svg xmlns="http://www.w3.org/2000/svg" xmlns:xlink="http://www.w3.org/1999/xlink" style="isolation:isolate" viewBox="0 0 563.7 128" width="563.7pt" height="128pt"><defs><clipPath id="_clipPath_9jCkQAOFWHsvbz0VayES6Wa1dtc9BTIz"><rect width="563.7" height="128"/></clipPath></defs><g clip-path="url(#_clipPath_9jCkQAOFWHsvbz0VayES6Wa1dtc9BTIz)"><rect width="563.7" height="128" style="fill:rgb(3,6,55)"/><path d=" M 173.169 120.004 L 173.169 120.004 L 158.363 120.004 L 158.363 120.004 Q 154.705 120.004 154.705 116.346 L 154.705 116.346 L 154.705 11.658 L 154.705 11.658 Q 154.705 8 158.363 8 L 158.363 8 L 173.169 8 L 173.169 8 Q 176.827 8 176.827 11.658 L 176.827 11.658 L 176.827 61.302 L 177.175 61.302 L 177.175 61.302 Q 178.569 57.121 182.575 50.502 L 182.575 50.502 L 209.052 11.658 L 209.052 11.658 Q 211.316 8 215.845 8 L 215.845 8 L 232.915 8 L 232.915 8 Q 234.832 8 235.267 9.132 L 235.267 9.132 L 235.267 9.132 Q 235.702 10.265 234.309 12.007 L 234.309 12.007 L 201.213 57.818 L 238.141 115.649 L 238.141 115.649 Q 239.36 117.739 238.577 118.871 L 238.577 118.871 L 238.577 118.871 Q 237.793 120.004 235.354 120.004 L 235.354 120.004 L 222.638 120.004 L 222.638 120.004 Q 216.542 120.004 214.451 116.346 L 214.451 116.346 L 187.801 73.669 L 176.827 86.559 L 176.827 116.346 L 176.827 116.346 Q 176.827 120.004 173.169 120.004 Z  M 281.34 120.004 L 281.34 120.004 L 277.159 120.004 L 277.159 120.004 Q 263.398 120.004 255.908 112.688 L 255.908 112.688 L 255.908 112.688 Q 248.418 105.372 248.418 91.611 L 248.418 91.611 L 248.418 59.56 L 248.418 59.56 Q 248.418 45.799 255.908 38.483 L 255.908 38.483 L 255.908 38.483 Q 263.398 31.167 277.159 31.167 L 277.159 31.167 L 317.397 31.167 L 317.397 31.167 Q 321.229 31.167 321.229 34.825 L 321.229 34.825 L 321.229 116.346 L 321.229 116.346 Q 321.229 120.004 317.397 120.004 L 317.397 120.004 L 302.765 120.004 L 302.765 120.004 Q 299.107 120.004 299.107 116.346 L 299.107 116.346 L 299.107 110.597 L 298.41 110.597 L 298.41 110.597 Q 296.494 115.301 291.617 117.652 L 291.617 117.652 L 291.617 117.652 Q 286.74 120.004 281.34 120.004 Z  M 299.107 87.605 L 299.107 87.605 L 299.107 52.244 L 299.107 52.244 Q 299.107 50.328 297.017 50.328 L 297.017 50.328 L 280.643 50.328 L 280.643 50.328 Q 275.069 50.328 272.805 52.68 L 272.805 52.68 L 272.805 52.68 Q 270.54 55.031 270.54 60.605 L 270.54 60.605 L 270.54 90.566 L 270.54 90.566 Q 270.54 96.14 272.805 98.491 L 272.805 98.491 L 272.805 98.491 Q 275.069 100.843 280.643 100.843 L 280.643 100.843 L 287.088 100.843 L 287.088 100.843 Q 299.107 100.843 299.107 87.605 Z  M 374.008 120.004 L 374.008 120.004 L 340.913 120.004 L 340.913 120.004 Q 337.429 120.004 337.429 116.346 L 337.429 116.346 L 337.429 105.198 L 337.429 105.198 Q 337.429 103.282 338.126 102.498 L 338.126 102.498 L 338.126 102.498 Q 338.822 101.714 340.913 101.714 L 340.913 101.714 L 370.002 101.714 L 370.002 101.714 Q 378.537 101.714 378.537 96.488 L 378.537 96.488 L 378.537 95.617 L 378.537 95.617 Q 378.537 91.437 371.396 87.605 L 371.396 87.605 L 354.151 78.024 L 354.151 78.024 Q 345.267 73.495 341.087 68.27 L 341.087 68.27 L 341.087 68.27 Q 336.906 63.044 336.906 54.857 L 336.906 54.857 L 336.906 54.857 Q 336.906 42.664 343.351 36.916 L 343.351 36.916 L 343.351 36.916 Q 349.796 31.167 363.557 31.167 L 363.557 31.167 L 392.647 31.167 L 392.647 31.167 Q 396.13 31.167 396.13 34.825 L 396.13 34.825 L 396.13 46.148 L 396.13 46.148 Q 396.13 48.064 395.434 48.848 L 395.434 48.848 L 395.434 48.848 Q 394.737 49.631 392.647 49.631 L 392.647 49.631 L 368.434 49.631 L 368.434 49.631 Q 359.899 49.631 359.899 53.986 L 359.899 53.986 L 359.899 54.857 L 359.899 54.857 Q 359.899 58.689 367.389 62.696 L 367.389 62.696 L 384.982 73.147 L 384.982 73.147 Q 394.04 78.024 397.698 83.163 L 397.698 83.163 L 397.698 83.163 Q 401.356 88.301 401.356 96.662 L 401.356 96.662 L 401.356 96.662 Q 401.356 120.004 374.008 120.004 Z  M 482.18 120.004 L 482.18 120.004 L 443.684 120.004 L 443.684 120.004 Q 429.923 120.004 422.433 112.688 L 422.433 112.688 L 422.433 112.688 Q 414.943 105.372 414.943 91.611 L 414.943 91.611 L 414.943 59.56 L 414.943 59.56 Q 414.943 45.799 422.433 38.483 L 422.433 38.483 L 422.433 38.483 Q 429.923 31.167 443.684 31.167 L 443.684 31.167 L 457.445 31.167 L 457.445 31.167 Q 471.206 31.167 478.696 38.483 L 478.696 38.483 L 478.696 38.483 Q 486.186 45.799 486.186 59.56 L 486.186 59.56 L 486.186 81.682 L 486.186 81.682 Q 486.186 85.34 482.528 85.34 L 482.528 85.34 L 438.807 85.34 L 438.807 85.34 Q 436.716 85.34 436.716 87.256 L 436.716 87.256 L 436.716 91.088 L 436.716 91.088 Q 436.716 96.488 439.068 98.84 L 439.068 98.84 L 439.068 98.84 Q 441.419 101.191 446.994 101.191 L 446.994 101.191 L 482.18 101.191 L 482.18 101.191 Q 485.838 101.191 485.838 105.023 L 485.838 105.023 L 485.838 116.52 L 485.838 116.52 Q 485.838 118.436 485.054 119.22 L 485.054 119.22 L 485.054 119.22 Q 484.27 120.004 482.18 120.004 Z  M 438.807 70.534 L 438.807 70.534 L 462.496 70.534 L 462.496 70.534 Q 464.412 70.534 464.412 68.618 L 464.412 68.618 L 464.412 60.257 L 464.412 60.257 Q 464.412 54.683 462.148 52.418 L 462.148 52.418 L 462.148 52.418 Q 459.883 50.154 454.309 50.154 L 454.309 50.154 L 446.994 50.154 L 446.994 50.154 Q 441.419 50.154 439.155 52.418 L 439.155 52.418 L 439.155 52.418 Q 436.891 54.683 436.891 60.257 L 436.891 60.257 L 436.891 68.618 L 436.891 68.618 Q 436.891 70.534 438.807 70.534 Z  M 536.352 120.004 L 536.352 120.004 L 503.256 120.004 L 503.256 120.004 Q 499.773 120.004 499.773 116.346 L 499.773 116.346 L 499.773 105.198 L 499.773 105.198 Q 499.773 103.282 500.469 102.498 L 500.469 102.498 L 500.469 102.498 Q 501.166 101.714 503.256 101.714 L 503.256 101.714 L 532.346 101.714 L 532.346 101.714 Q 540.881 101.714 540.881 96.488 L 540.881 96.488 L 540.881 95.617 L 540.881 95.617 Q 540.881 91.437 533.74 87.605 L 533.74 87.605 L 516.495 78.024 L 516.495 78.024 Q 507.611 73.495 503.431 68.27 L 503.431 68.27 L 503.431 68.27 Q 499.25 63.044 499.25 54.857 L 499.25 54.857 L 499.25 54.857 Q 499.25 42.664 505.695 36.916 L 505.695 36.916 L 505.695 36.916 Q 512.14 31.167 525.901 31.167 L 525.901 31.167 L 554.991 31.167 L 554.991 31.167 Q 558.474 31.167 558.474 34.825 L 558.474 34.825 L 558.474 46.148 L 558.474 46.148 Q 558.474 48.064 557.778 48.848 L 557.778 48.848 L 557.778 48.848 Q 557.081 49.631 554.991 49.631 L 554.991 49.631 L 530.778 49.631 L 530.778 49.631 Q 522.243 49.631 522.243 53.986 L 522.243 53.986 L 522.243 54.857 L 522.243 54.857 Q 522.243 58.689 529.733 62.696 L 529.733 62.696 L 547.326 73.147 L 547.326 73.147 Q 556.384 78.024 560.042 83.163 L 560.042 83.163 L 560.042 83.163 Q 563.7 88.301 563.7 96.662 L 563.7 96.662 L 563.7 96.662 Q 563.7 120.004 536.352 120.004 Z " fill="rgb(255,255,255)"/><linearGradient id="_lgradient_2" x1="0.1464466094067262" y1="0.14644660940672627" x2="0.8535533905932737" y2="0.8535533905932737" gradientTransform="matrix(106.667,0,0,128,0,0)" gradientUnits="userSpaceOnUse"><stop offset="0%" stop-opacity="1" style="stop-color:rgb(59,130,246)"/><stop offset="100%" stop-opacity="1" style="stop-color:rgb(99,102,241)"/></linearGradient><path d=" M 90.667 48 L 106.667 48 L 106.667 58.667 L 90.667 58.667 C 87.723 58.667 85.333 56.277 85.333 53.333 C 85.333 50.389 87.723 48 90.667 48 Z  M 16 85.333 L 21.333 85.333 L 21.333 0.533 C 8.917 3.067 0 13.995 0 26.667 L 0 90.8 C 3.728 87.989 8.133 86.213 12.773 85.659 C 13.835 85.44 14.917 85.333 16 85.333 Z  M 0 112 C 0 120.837 7.163 128 16 128 L 80 128 C 94.725 128 106.667 116.059 106.667 101.333 L 106.667 96 L 16 96 C 7.163 96 0 103.163 0 112 Z  M 90.667 69.333 C 81.845 69.333 74.667 62.155 74.667 53.333 C 74.667 44.512 81.845 37.333 90.667 37.333 L 106.667 37.333 L 106.667 26.667 C 106.667 11.941 94.725 0 80 0 L 32 0 L 32 85.333 L 106.667 85.333 L 106.667 69.333 L 90.667 69.333 Z " fill="url(#_lgradient_2)"/></g></svg>