<svg width="64" height="64" viewBox="0 0 64 64" fill="none" xmlns="http://www.w3.org/2000/svg">
<path d="M32 32C33.9778 32 35.9112 31.4135 37.5557 30.3147C39.2002 29.2159 40.4819 27.6541 41.2388 25.8268C41.9957 23.9996 42.1937 21.9889 41.8079 20.0491C41.422 18.1093 40.4696 16.3275 39.0711 14.9289C37.6725 13.5304 35.8907 12.578 33.9509 12.1922C32.0111 11.8063 30.0004 12.0043 28.1732 12.7612C26.3459 13.5181 24.7841 14.7998 23.6853 16.4443C22.5865 18.0888 22 20.0222 22 22C22.0026 24.6514 23.0571 27.1934 24.9319 29.0682C26.8066 30.9429 29.3486 31.9974 32 32ZM32 15.3333C33.3185 15.3333 34.6075 15.7243 35.7038 16.4569C36.8001 17.1894 37.6546 18.2306 38.1592 19.4488C38.6638 20.667 38.7958 22.0074 38.5386 23.3006C38.2813 24.5938 37.6464 25.7817 36.714 26.7141C35.7817 27.6464 34.5938 28.2813 33.3006 28.5386C32.0074 28.7958 30.667 28.6638 29.4488 28.1592C28.2306 27.6546 27.1894 26.8001 26.4569 25.7038C25.7243 24.6075 25.3333 23.3185 25.3333 22C25.3333 20.2319 26.0357 18.5362 27.286 17.286C28.5362 16.0357 30.2319 15.3333 32 15.3333Z" fill="#021B36"/>
<path d="M32 35.3333C28.0231 35.3377 24.2104 36.9195 21.3983 39.7316C18.5862 42.5437 17.0044 46.3564 17 50.3333C17 50.7754 17.1756 51.1993 17.4882 51.5118C17.8007 51.8244 18.2246 52 18.6667 52C19.1087 52 19.5326 51.8244 19.8452 51.5118C20.1577 51.1993 20.3333 50.7754 20.3333 50.3333C20.3333 47.2391 21.5625 44.2717 23.7504 42.0838C25.9383 39.8958 28.9058 38.6667 32 38.6667C35.0942 38.6667 38.0617 39.8958 40.2496 42.0838C42.4375 44.2717 43.6667 47.2391 43.6667 50.3333C43.6667 50.7754 43.8423 51.1993 44.1548 51.5118C44.4674 51.8244 44.8913 52 45.3333 52C45.7754 52 46.1993 51.8244 46.5118 51.5118C46.8244 51.1993 47 50.7754 47 50.3333C46.9956 46.3564 45.4138 42.5437 42.6017 39.7316C39.7896 36.9195 35.9769 35.3377 32 35.3333Z" fill="#021B36"/>
</svg>
